<svg width="24" height="24" viewBox="0 0 24 24" fill="none" xmlns="http://www.w3.org/2000/svg">
<path d="M16.382 4.0672C15.1835 3.05142 13.9489 1.99767 12.6995 0.7522L11.9873 0.0450439L11.2882 0.753185C9.03886 3.00848 7.97616 6.47132 7.51472 8.54882C7.16152 8.00137 6.89944 7.40029 6.73866 6.76898L6.31617 5.13797L5.08767 6.29259C2.93517 8.31309 1.49991 10.3177 1.49991 13.5278C1.45856 18.2919 4.66341 22.4734 9.27455 23.6716C9.94978 23.8358 10.639 23.9362 11.3331 23.9712C11.5611 23.9877 12.214 24.0042 12.3259 23.9972C17.983 23.827 22.4794 19.1895 22.4746 13.5298C22.4746 9.24098 19.6511 6.84384 16.382 4.0672ZM12.1808 21.9867C12.0762 21.9957 11.9811 21.9967 11.8753 21.9957C10.0076 21.9386 8.52188 20.4104 8.51733 18.5419C8.51733 17.2762 9.19613 16.6453 10.7324 15.3376C11.1196 15.0082 11.5409 14.6499 11.9841 14.2396C12.3724 14.592 12.7497 14.9114 13.0981 15.2078C14.6413 16.5175 15.4469 17.2612 15.4469 18.5389C15.4434 20.3719 14.0109 21.8841 12.1808 21.9867ZM17.1917 20.2188L17.1718 20.2328C17.3509 19.687 17.4426 19.1163 17.4433 18.5418C17.4433 16.2809 15.9599 15.0211 14.3908 13.6885C13.8348 13.2174 13.2608 12.7303 12.6878 12.1573L11.9811 11.4515L11.2754 12.1573C10.6285 12.8031 9.99567 13.3421 9.43767 13.8173C7.87247 15.1489 6.51989 16.2998 6.51989 18.5418C6.522 19.1409 6.6232 19.7356 6.81938 20.3017C4.71309 18.6843 3.48375 16.1754 3.49636 13.5198C3.47995 11.7682 4.15791 10.0813 5.38195 8.82825C5.5928 9.25598 5.84274 9.66333 6.12863 10.0451C6.55533 10.6209 7.28344 10.888 7.98131 10.7249C8.69077 10.5669 9.24234 10.0087 9.39178 9.29742C9.80977 7.00317 10.7138 4.82493 12.043 2.90887C13.0961 3.90708 14.1393 4.79048 15.0806 5.59008C18.207 8.24531 20.4709 10.1639 20.4709 13.5258C20.4759 16.1451 19.2639 18.618 17.1908 20.2188H17.1917V20.2188Z" fill="#3C3E3C"/>
</svg>
