<svg width="242" height="225" viewBox="0 0 242 225" fill="none" xmlns="http://www.w3.org/2000/svg">
<path d="M80.1625 22.7854C82.3301 21.863 84.4646 20.8514 86.6717 20.031C95.9523 16.5873 105.58 14.7376 115.439 14.2055C126.723 13.5967 137.807 14.9563 148.633 18.2375C160.573 21.8565 171.448 27.5449 181.249 35.2787C189.743 41.9813 196.927 49.8931 202.839 58.9605C203.238 59.5726 203.865 60.1228 203.337 61.0574C203.121 61.4401 203.333 62.0671 203.351 62.6891C203.913 62.5736 204.377 62.4786 205.003 62.3495C206.379 64.927 207.769 67.5254 209.232 70.2668C207.864 70.4591 206.715 70.6802 205.559 70.7419C205.26 70.7588 204.823 70.3466 204.638 70.0225C202.797 66.7895 201.148 63.4358 199.138 60.3158C197.415 57.6407 195.359 55.1678 193.336 52.6995C183.783 41.0388 172.091 32.1703 158.327 26.0666C147.516 21.2752 136.193 18.6519 124.377 18.1411C117.891 17.8605 111.472 18.3783 105.051 19.2739C100.782 19.8692 96.65 20.9831 92.5813 22.2711C88.5062 23.5623 84.4719 25.0788 80.5995 26.8861C76.6973 28.709 72.9409 30.8867 69.2553 33.1299C64.2976 36.1514 59.8394 39.8509 55.5863 43.8076C52.7609 46.4356 50.1711 49.2776 47.7528 52.2671C46.9397 53.2737 46.2079 53.7861 44.9659 53.2354C44.771 53.1484 44.5324 53.1567 44.2568 53.1131C43.6472 54.0888 44.2498 55.0132 44.302 55.9371C44.3162 56.2006 44.3511 56.5297 44.2183 56.7223C43.0177 58.4973 41.7816 60.2475 40.4878 62.1065C39.6522 61.4254 38.9137 61.8907 38.5522 62.6005C38.3801 62.9359 38.8972 63.6252 39.1797 64.352C36.0272 69.7214 33.1417 75.5612 31.1701 81.7942C29.9133 85.7692 28.939 89.8371 27.866 93.8685C27.6913 94.5269 27.2734 94.819 26.8161 95.27C25.7996 96.2754 24.5868 95.851 23.3249 96.4265C23.7026 94.4994 24.0039 92.7433 24.3969 91.0063C27.3737 77.8705 32.7862 65.834 40.6521 54.9079C46.3225 47.0292 53.02 40.1549 60.7073 34.2466C61.1173 33.9304 61.5695 33.622 62.0531 33.4556C63.0029 33.1299 64.0975 33.0539 64.2297 31.7036C64.2415 31.5761 64.5046 31.4659 64.6586 31.3596C69.3811 28.1264 74.3435 25.317 79.5456 22.9293C79.7472 22.8369 79.9773 22.8 80.1923 22.7378C80.1512 22.8351 80.0982 22.9294 80.0715 23.0316C79.9764 23.379 79.8907 23.7274 79.8004 24.0765C80.1464 24.1171 80.5643 24.2963 80.8224 24.1662C81.1953 23.9765 81.4517 23.5584 81.7584 23.2384C81.517 23.0321 81.3018 22.7351 81.0246 22.6482C80.7718 22.5716 80.4491 22.7291 80.157 22.7793L80.1625 22.7854ZM69.1717 32.112C69.9383 31.2629 70.7178 30.4234 71.4356 29.5354C71.4786 29.4836 71.0603 28.8468 70.7949 28.7949C70.0481 28.6481 68.2219 29.9528 67.9726 30.6971C67.6834 31.5638 68.0544 32.0265 69.1717 32.112ZM87.3142 21.7917C88.5989 22.467 89.7993 22.3806 90.5013 21.4445C90.7572 21.1042 90.8528 20.4364 90.6943 20.056C90.5854 19.8013 89.8825 19.6415 89.4791 19.6959C88.3297 19.8529 87.6968 20.6626 87.3142 21.7917ZM25.9693 89.9593C27.1881 90.2639 28.0239 89.9062 28.0507 88.9757C28.0626 88.6057 27.6343 88.0115 27.2763 87.8856C26.6902 87.6797 26.0254 88.7661 25.9693 89.9593ZM110.529 17.5316C110.829 17.0501 111.105 16.7573 111.172 16.4207C111.196 16.2983 110.646 15.8813 110.481 15.9412C110.155 16.0579 109.915 16.4143 109.64 16.6702C109.881 16.9041 110.122 17.138 110.529 17.5316Z" fill="#207918"/>
<path d="M103.132 209.524C103.618 209.034 104.001 208.722 104.289 208.334C104.493 208.06 104.562 207.689 104.692 207.362C104.291 207.21 103.833 206.854 103.503 206.948C102.88 207.129 102.237 207.474 101.77 207.924C100.811 208.848 99.8491 208.976 98.5459 208.672C85.9759 205.739 74.4057 200.576 63.8489 193.152C57.666 188.804 52.0433 183.812 47.0268 178.145C46.9291 178.035 46.8475 177.909 46.8083 177.857C47.8259 177.055 48.8234 176.272 49.7565 175.535C52.5074 178.178 55.3016 181.08 58.3218 183.721C71.8862 195.583 87.584 202.964 105.346 205.922C106.494 206.113 107.659 206.215 108.804 206.418C109.49 206.539 110.304 206.287 110.593 207.448C110.741 208.047 111.573 207.791 112.119 207.366C112.444 207.112 112.914 206.866 113.301 206.891C120.651 207.393 127.96 207.094 135.242 205.972C135.68 205.904 136.194 206.127 136.634 206.305C137.382 206.607 137.988 206.659 138.368 205.773C138.449 205.585 138.686 205.39 138.887 205.339C141.002 204.806 143.125 204.299 145.247 203.797C145.457 203.747 145.734 203.701 145.9 203.795C146.577 204.18 146.904 203.857 147.411 203.383C147.893 202.933 148.675 202.778 149.346 202.562C160.134 199.119 169.956 193.861 178.828 186.825C191.184 177.025 200.492 164.857 206.871 150.434C207.616 148.748 208.271 147.024 209.003 145.23C209.876 145.572 210.589 145.257 210.728 144.345C210.789 143.945 210.277 143.459 209.998 142.965C211.017 138.763 212.079 134.341 213.183 129.933C213.251 129.667 213.636 129.352 213.92 129.294C214.986 129.08 216.071 128.966 217.399 128.78C216.989 130.881 216.606 132.838 216.209 134.871C215.576 134.77 215.039 134.685 214.396 134.581C214.168 135.771 214.217 136.798 214.956 137.767C215.152 138.026 215.236 138.508 215.148 138.829C212.665 147.935 208.915 156.494 203.946 164.507C197.386 175.087 189.126 184.119 179.165 191.576C170.943 197.728 162.021 202.6 152.236 205.725C147.339 207.29 142.285 208.362 137.3 209.646C136.903 209.747 136.486 209.767 136.09 209.823C135.371 208.265 135.134 208.271 133.814 209.41C133.258 209.891 132.507 210.342 131.801 210.421C122.407 211.487 113.036 211.312 103.71 209.674C103.575 209.649 103.443 209.604 103.127 209.52L103.132 209.524ZM196.239 171.459C197.552 171.735 198.304 171.402 198.32 170.43C198.327 170.054 197.888 169.466 197.522 169.334C196.965 169.135 196.266 170.318 196.239 171.459ZM203.253 159.152C202.853 159.984 202.551 160.463 202.417 160.988C202.38 161.135 203.024 161.616 203.048 161.597C203.521 161.176 203.971 160.719 204.35 160.215C204.379 160.177 203.834 159.711 203.253 159.154L203.253 159.152ZM97.2109 205.315C96.3347 205.434 95.5789 205.629 95.488 206.608C95.4796 206.694 96.2225 207.008 96.5575 206.938C97.3689 206.764 97.8246 206.286 97.2109 205.315ZM160.756 199.405L160.928 199.957C161.462 199.94 161.998 199.921 162.532 199.904L162.452 198.244C162.329 198.198 162.204 198.153 162.081 198.107C161.639 198.539 161.198 198.97 160.756 199.403L160.756 199.405Z" fill="#207918"/>
<path d="M64.7275 154.265L64.1811 150.377C64.6059 150.297 64.9947 150.203 65.3888 150.148C104.781 144.609 144.176 139.077 183.564 133.512C184.69 133.354 184.974 133.68 185.088 134.723C185.37 137.297 185.419 137.303 182.855 137.664C150.031 142.277 117.208 146.885 84.3835 151.496C78.3104 152.35 72.238 153.208 66.1652 154.063C65.7263 154.125 65.2874 154.187 64.7275 154.265ZM106.156 148.299C107.529 146.863 107.586 146.325 106.544 145.082C105.033 145.969 104.868 147.164 106.156 148.299ZM84.1505 150.634C84.8474 150.134 85.8459 149.943 85.5145 148.852C85.4548 148.655 84.5149 148.467 84.2261 148.654C83.5123 149.115 83.4344 149.829 84.1505 150.634ZM94.642 148.057C94.7683 148.078 94.8943 148.097 95.0206 148.118C95.122 147.783 95.4066 147.322 95.2809 147.143C95.0921 146.872 94.6225 146.797 94.2716 146.64C94.2046 146.732 94.1376 146.824 94.0731 146.917C94.2636 147.298 94.4515 147.676 94.642 148.057Z" fill="#207918"/>
<path d="M176.644 74.8011L56.0041 91.7559L55.473 87.9774C55.8646 87.904 56.287 87.8058 56.7147 87.7456C85.3743 83.7224 114.037 79.7033 142.696 75.6777C153.391 74.1747 164.089 72.6757 174.778 71.1255C175.874 70.9668 176.273 71.2517 176.312 72.3262C176.34 73.1072 176.515 73.8834 176.644 74.8011ZM142.659 77.6874C143.096 77.1409 143.381 76.7805 143.669 76.422C143.383 76.2425 143.013 75.8529 142.825 75.9274C142.399 76.0948 142.059 76.4903 141.686 76.7922C141.946 77.0325 142.206 77.2729 142.657 77.6899L142.659 77.6874Z" fill="#207918"/>
<path d="M194.371 153.687L194.603 155.334C194.889 155.355 195.173 155.377 195.512 155.405C195.471 155.548 195.455 155.699 195.387 155.816C192.428 160.998 188.952 165.809 184.99 170.262C180.971 174.779 176.551 178.864 171.671 182.44C170.883 183.017 170.091 183.591 169.273 184.125C168.599 184.562 168.053 185.241 166.994 184.793C166.62 184.635 165.715 185.144 165.371 185.593C162.645 189.184 158.447 190.348 154.665 192.182C153.609 192.694 152.399 192.875 151.291 193.294C149.695 193.898 148.162 194.688 146.541 195.211C140.396 197.196 134.101 198.481 127.656 198.948C125.017 199.138 122.368 199.281 119.723 199.259C116.982 199.235 114.232 199.088 111.507 198.805C108.819 198.529 106.136 198.107 103.486 197.578C100.836 197.051 98.1928 196.428 95.6052 195.645C84.8997 192.411 75.1564 187.314 66.4126 180.31C61.1296 176.078 56.3739 171.324 52.242 165.955C51.8592 165.458 51.6053 164.773 51.5337 164.149C51.4523 163.439 51.1609 163.105 50.5449 162.817C50.0071 162.565 49.4191 162.199 49.1073 161.719C47.332 158.982 45.632 156.196 43.8894 153.4C45.7046 152.635 45.89 152.703 46.7033 154.119C56.8539 171.798 71.3977 184.389 90.3833 191.734C104.713 197.278 119.526 198.671 134.638 196.063C152.11 193.046 167.197 185.247 179.865 172.788C180.547 172.115 181.408 171.612 182.028 170.894C183.465 169.225 184.893 167.537 186.161 165.741C188.768 162.057 191.267 158.299 193.808 154.569C193.951 154.357 194.082 154.135 194.366 153.683L194.371 153.687Z" fill="#207918"/>
<path d="M137.426 179.446C135.11 178.591 133.049 177.887 131.04 177.062C130.003 176.636 129.2 176.641 128.278 177.381C126.555 178.765 124.726 180.018 122.709 181.496C122.727 180.514 122.724 179.761 122.76 179.011C122.841 177.281 122.98 175.554 123.008 173.825C123.015 173.467 122.726 172.984 122.425 172.761C120.576 171.401 118.685 170.101 116.809 168.777C116.667 168.676 116.542 168.549 116.251 168.297C118.621 167.648 120.805 166.984 123.023 166.471C124.038 166.237 124.52 165.748 124.806 164.763C125.431 162.6 126.185 160.473 126.959 158.113C128.045 159.716 129.039 161.152 130.002 162.607C131.66 165.113 131.652 165.105 134.628 165.028C136.378 164.983 138.131 164.991 140.147 164.971C138.559 166.919 137.165 168.682 135.709 170.395C135.078 171.138 134.798 171.772 135.226 172.792C135.937 174.488 136.435 176.274 137.015 178.025C137.142 178.41 137.243 178.803 137.428 179.443L137.426 179.446ZM133.865 170.421C134.306 169.885 134.606 169.518 134.909 169.151C134.577 168.968 134.184 168.575 133.932 168.654C133.538 168.773 133.241 169.211 132.902 169.515C133.168 169.764 133.431 170.013 133.868 170.423L133.865 170.421Z" fill="#207918"/>
<path d="M110.756 43.1334C112.191 45.2153 113.54 47.1285 114.839 49.0762C115.249 49.6889 115.651 49.9985 116.464 49.9667C118.854 49.8757 121.248 49.9189 123.932 49.9078C122.489 51.7101 121.306 53.4002 119.899 54.8748C118.836 55.9875 118.683 56.9631 119.262 58.3575C120.038 60.2231 120.579 62.188 121.309 64.3714C119.574 63.7434 117.988 63.3644 116.6 62.6191C114.326 61.4011 112.465 61.5803 110.589 63.4113C109.473 64.5017 108.058 65.2864 106.774 66.2059C106.749 66.2232 106.701 66.2115 106.507 66.2251C106.588 64.2826 106.509 62.3281 106.791 60.4283C107.052 58.6525 106.51 57.587 104.979 56.7176C103.48 55.8666 102.122 54.7669 100.707 53.7691C100.54 53.6507 100.405 53.4866 100.118 53.2135C102.145 52.6541 103.989 52.0173 105.889 51.6543C107.581 51.3318 108.543 50.6062 108.923 48.8253C109.33 46.9262 110.099 45.1043 110.751 43.1318L110.756 43.1334ZM114.813 55.1181C115.485 54.7994 116.138 54.4903 116.566 54.286C116.933 54.7195 117.214 55.2841 117.434 55.2623C117.869 55.2195 118.368 54.9321 118.663 54.5932C118.902 54.3169 118.951 53.8159 118.951 53.4154C118.953 53.0994 118.81 52.5681 118.624 52.5164C118.342 52.4394 117.784 52.6001 117.67 52.8244C117.314 53.5265 116.817 53.4522 116.185 53.4061C115.033 53.3185 114.638 53.8385 114.811 55.1184L114.813 55.1181Z" fill="#207918"/>
<path d="M196.701 71.9456C194.798 72.4099 194.808 72.4038 193.933 70.868C193.393 69.921 192.838 68.9785 192.254 68.0584C191.708 67.1947 190.992 66.3848 192.147 65.0486C190.111 65.4789 189.719 64.0764 188.972 63.1151C187.263 60.9161 185.544 58.7255 183.957 56.6947C184.027 56.0694 184.085 55.5534 184.142 55.035C183.628 54.9998 183.114 54.9667 182.404 54.9178C180.317 52.955 178.076 50.7255 175.708 48.6444C168.254 42.0909 159.881 37.0097 150.59 33.5561C146.585 32.0687 142.407 31.0519 138.299 29.8491C137.594 29.6439 136.863 29.5866 137.084 28.5304C137.117 28.3747 136.827 28.15 136.686 27.9571C136.507 28.1149 136.272 28.2418 136.167 28.4396C136.047 28.6601 136.046 28.944 135.96 29.3587C134.665 28.9001 133.126 29.4024 132.292 28.2932C131.435 28.3586 130.746 28.4921 130.069 28.45C126.632 28.2397 123.199 27.9855 119.778 27.7454C119.897 27.2093 120.032 26.6092 120.169 25.9927C151.224 25.3282 182.279 43.8265 196.701 71.9456Z" fill="#207918"/>
<path d="M140.101 41.938C141.413 43.8793 142.572 45.5331 143.659 47.2339C144.051 47.8469 144.484 48.088 145.205 48.069C147.29 48.0141 149.376 48.0274 151.69 48.0134C150.571 49.4131 149.639 50.7729 148.508 51.9363C147.331 53.1497 146.947 54.2721 147.733 55.9006C148.429 57.3382 148.775 58.9438 149.362 60.7307C147.556 60.083 145.901 59.6177 144.364 58.9002C142.935 58.2339 141.842 58.3417 140.641 59.3983C139.381 60.5089 137.934 61.4078 136.354 62.5567C136.393 61.2905 136.26 60.1994 136.488 59.1903C137.151 56.2553 136.251 54.2263 133.466 52.9634C132.5 52.5248 131.694 51.7297 130.599 50.9409C132.722 50.3635 134.611 49.8165 136.518 49.3494C137.432 49.1248 137.994 48.7485 138.255 47.7462C138.736 45.8938 139.406 44.0927 140.103 41.9377L140.101 41.938ZM141.974 55.7171C140.972 56.1942 140.379 57.1424 140.821 57.6226C141.018 57.8375 141.677 57.9439 141.874 57.7858C142.625 57.1837 142.429 56.4401 141.974 55.7171Z" fill="#207918"/>
<path d="M109.8 171.274C108.361 173.074 107.141 174.696 105.806 176.215C105.233 176.865 105.238 177.418 105.495 178.144C106.154 180.019 106.771 181.91 107.482 184.025C105.793 183.413 104.231 183.01 102.827 182.297C101.13 181.435 99.8218 181.614 98.4229 182.904C97.2525 183.984 95.8452 184.809 94.4062 185.846C94.5112 183.733 94.5822 181.785 94.7249 179.843C94.7489 179.526 95.1716 179.252 95.2483 178.921C95.3658 178.408 95.3438 177.862 95.381 177.33C94.962 177.355 94.5427 177.393 94.1234 177.399C93.7975 177.404 93.3931 177.484 93.1567 177.329C91.7175 176.383 90.3178 175.376 88.6826 174.238C90.3478 173.77 91.7785 173.21 93.262 172.992C95.2959 172.695 96.4032 171.718 96.7888 169.669C97.0503 168.28 97.6471 166.953 98.0941 165.6C98.1034 165.569 98.1437 165.547 98.3235 165.364C99.1893 167.089 100.805 168.253 101.118 170.33C101.181 170.749 102.37 171.243 103.062 171.279C105.23 171.386 107.41 171.292 109.802 171.274L109.8 171.274Z" fill="#207918"/>
<path d="M146.758 166.032C149.078 165.393 151.11 164.876 153.109 164.249C153.554 164.112 154.029 163.658 154.224 163.228C154.627 162.343 154.769 161.339 155.17 160.454C155.57 159.575 156.157 158.781 156.771 157.77C157.921 159.457 158.892 160.968 159.967 162.4C160.243 162.769 160.84 163.085 161.299 163.099C163.396 163.156 165.498 163.099 167.884 163.079C166.346 164.991 164.977 166.703 163.585 168.397C163.487 168.516 163.208 168.546 163.027 168.521C161.656 168.338 161.187 168.933 161.674 170.331C162.245 170.075 162.812 169.817 163.454 169.527C164.149 171.615 164.815 173.606 165.553 175.822C163.896 175.224 162.333 174.829 160.933 174.115C159.234 173.248 157.909 173.441 156.507 174.707C155.345 175.756 153.981 176.579 152.709 177.504C152.594 177.465 152.477 177.426 152.362 177.388C152.59 176.067 152.827 174.75 153.036 173.426C153.075 173.171 153.028 172.896 152.98 172.638C152.929 172.359 152.721 172.065 152.774 171.82C153.028 170.64 152.52 169.968 151.535 169.358C149.974 168.395 148.516 167.266 146.76 166.03L146.758 166.032Z" fill="#207918"/>
<path d="M45.9628 72.1576C45.7832 71.6108 45.6265 71.1294 45.4672 70.6461C45.2118 71.071 44.9893 71.5187 44.6904 71.9108C44.4512 72.2236 44.1197 72.4647 43.6062 72.5803C44.1243 71.6197 44.6251 70.6501 45.1634 69.7027C49.4007 62.2542 54.6261 55.5799 60.8189 49.6642C61.306 49.1977 61.7344 48.9155 62.47 49.0798C63.3376 49.2737 64.214 49.2054 64.7612 48.1103C64.4051 47.8674 64.0263 47.6095 63.4782 47.2358C79.3238 33.6025 97.667 26.6268 118.515 26.0215C117.674 26.9886 117.037 28.0278 115.427 28.1121C102.2 28.7904 89.8472 32.5194 78.3557 39.0791C69.9842 43.8571 62.6707 49.9394 56.3594 57.2377C56.0039 57.6492 55.4392 57.8887 54.949 58.1704C54.3151 58.5341 53.6828 58.8449 53.9736 59.7925C54.0362 59.9942 53.835 60.3177 53.6852 60.5355C51.8386 63.2387 50.1156 66.0413 48.0631 68.5789C47.1507 69.7071 47.0425 71.1959 45.9679 72.1614L45.9628 72.1576Z" fill="#207918"/>
<path d="M82.0438 50.1455C83.3247 52.0454 84.4771 53.6316 85.4843 55.3068C85.9759 56.1232 86.5678 56.2894 87.4225 56.2608C89.4003 56.1979 91.3793 56.2081 93.6347 56.1863C92.1282 58.0592 90.7749 59.739 89.4257 61.4158C87.8202 60.3418 87.2857 60.3895 85.9316 61.836C85.2444 62.5686 84.6467 63.3849 83.9978 64.1785C85.9642 65.0416 87.391 64.6649 89.1909 62.7508C89.494 63.6074 89.77 64.3855 90.0041 65.0436C89.7301 65.4665 89.5274 65.7787 89.3246 66.0909C89.6058 66.207 89.8977 66.301 90.1625 66.4468C90.3334 66.5418 90.5336 66.683 90.5982 66.8501C90.8254 67.4428 91.0004 68.0543 91.2833 68.9298C89.5614 68.3115 87.9656 67.9088 86.5369 67.1829C84.8915 66.3456 83.6411 66.6128 82.3055 67.7845C81.0999 68.8417 79.7204 69.7014 78.2471 70.7711C78.3451 68.4623 78.4696 66.342 78.4914 64.2225C78.4955 63.7963 78.218 63.2198 77.8805 62.9629C76.3844 61.8232 74.8172 60.7781 73.2785 59.6924C73.0782 59.5512 72.8969 59.3822 72.5818 59.1222C74.6512 58.5568 76.5488 57.9881 78.4737 57.5322C79.3799 57.3179 79.8713 56.9148 80.1357 55.9852C80.6761 54.0788 81.3595 52.214 82.0422 50.1503L82.0438 50.1455Z" fill="#207918"/>
<path d="M48.0301 173.309C47.0436 174.186 46.1017 175.023 45.0925 175.918C39.7799 169.59 35.2788 162.651 31.5866 154.903C32.9191 154.716 34.1178 154.52 35.3231 154.403C35.5281 154.383 35.865 154.652 35.9733 154.87C39.25 161.514 43.3757 167.602 48.0345 173.34C48.0565 173.367 48.058 173.41 48.0253 173.307L48.0301 173.309Z" fill="#207918"/>
<path d="M205.226 130.522C204.189 134.066 203.255 137.35 202.259 140.613C201.842 141.979 201.324 143.315 200.774 144.634C200.571 145.123 200.136 145.509 199.834 145.958C199.655 146.224 199.379 146.537 199.401 146.806C199.529 148.372 198.893 149.431 197.629 150.35C196.581 151.113 195.75 152.175 194.595 153.333C195.594 151.256 196.482 149.468 197.321 147.657C199.669 142.591 201.485 137.331 202.666 131.875C202.981 130.426 203.951 130.731 205.228 130.522L205.226 130.522Z" fill="#207918"/>
<path d="M42.8916 73.9621C43.6617 75.5745 44.2218 74.2305 45.0893 73.953C44.6368 74.8929 44.2512 75.6907 43.8709 76.4787C43.4446 76.4676 43.0529 76.4586 42.3445 76.4392C43.6414 77.8838 42.705 79.0039 42.2494 80.1822C41.7335 81.5155 41.4258 82.9819 40.6632 84.1531C39.8144 85.4576 39.8678 86.926 39.3914 88.2811C38.8961 89.6961 38.5743 91.176 38.2132 92.6363C37.7637 94.459 37.7823 94.461 35.7257 94.5647C37.22 87.4056 39.6047 80.618 42.889 73.9602L42.8916 73.9621Z" fill="#207918"/>
<path d="M56.3987 116.231C56.1719 115.264 55.6684 114.558 54.8883 114.113C54.1158 113.659 53.0837 113.522 51.7919 113.704C50.9367 113.824 50.2396 114.035 49.7008 114.338C49.1619 114.641 48.7775 115.008 48.5475 115.44C48.3163 115.864 48.2313 116.325 48.2925 116.825C48.3322 117.238 48.4631 117.587 48.6851 117.874C48.916 118.16 49.2221 118.398 49.6033 118.59C49.9922 118.771 50.4486 118.916 50.9726 119.024C51.4965 119.132 52.0797 119.209 52.722 119.255L55.149 119.459C56.5445 119.563 57.7933 119.787 58.8956 120.132C60.0068 120.475 60.9618 120.936 61.7608 121.514C62.5686 122.091 63.2171 122.795 63.7064 123.626C64.1956 124.456 64.5216 125.419 64.6845 126.513C64.9185 128.243 64.6904 129.788 64.0003 131.147C63.3102 132.507 62.2008 133.63 60.6721 134.518C59.1523 135.403 57.2521 136.007 54.9714 136.327C52.6819 136.649 50.6382 136.586 48.8402 136.14C47.0422 135.693 45.5728 134.836 44.4319 133.57C43.291 132.304 42.557 130.604 42.2298 128.47L48.5638 127.58C48.7412 128.454 49.0806 129.156 49.582 129.685C50.0833 130.214 50.7205 130.579 51.4936 130.779C52.2756 130.978 53.1521 131.009 54.1231 130.873C55.014 130.748 55.7543 130.521 56.3441 130.193C56.9428 129.863 57.3814 129.461 57.6599 128.986C57.9383 128.511 58.0431 127.996 57.9744 127.443C57.8929 126.927 57.6706 126.509 57.3074 126.187C56.943 125.857 56.4169 125.604 55.729 125.428C55.0488 125.242 54.1935 125.103 53.1632 125.012L50.2096 124.746C47.7635 124.535 45.7738 123.92 44.2405 122.9C42.706 121.871 41.7973 120.318 41.5145 118.241C41.2677 116.55 41.5135 115.003 42.2521 113.6C42.9907 112.197 44.1205 111.025 45.6417 110.085C47.163 109.144 48.9614 108.528 51.0371 108.236C53.1574 107.938 55.0478 108.041 56.7082 108.543C58.3763 109.035 59.7332 109.867 60.7788 111.037C61.8245 112.207 62.4758 113.642 62.7328 115.341L56.3987 116.231ZM69.1408 133.981L65.2946 106.614L76.5997 105.025C78.6487 104.737 80.4734 104.89 82.0738 105.482C83.6819 106.065 84.9915 107.012 86.0025 108.323C87.0122 109.626 87.6492 111.217 87.9134 113.097C88.1788 114.985 87.9968 116.696 87.3674 118.229C86.7456 119.752 85.7275 121.008 84.313 121.997C82.8986 122.986 81.1446 123.628 79.051 123.922L72.0756 124.902L71.3431 119.691L77.0892 118.883C78.087 118.743 78.8955 118.452 79.5148 118.011C80.1431 117.568 80.5871 117.011 80.8469 116.338C81.1054 115.657 81.1758 114.898 81.0582 114.06C80.9392 113.214 80.6628 112.508 80.229 111.942C79.7939 111.367 79.2141 110.958 78.4894 110.715C77.7648 110.471 76.908 110.419 75.9192 110.558L72.6586 111.016L75.7555 133.052L69.1408 133.981ZM93.6886 130.531L89.8424 103.164L108.925 100.482L109.68 105.854L97.2121 107.606L98.0008 113.219L109.493 111.604L110.25 116.989L98.7577 118.604L99.5484 124.23L112.016 122.478L112.771 127.85L93.6886 130.531ZM139.303 106.324L132.621 107.263C132.436 106.59 132.166 105.996 131.812 105.483C131.458 104.969 131.027 104.548 130.517 104.22C130.008 103.892 129.427 103.669 128.775 103.552C128.13 103.425 127.433 103.414 126.685 103.519C125.358 103.705 124.259 104.191 123.388 104.977C122.526 105.761 121.923 106.804 121.579 108.106C121.244 109.407 121.199 110.931 121.445 112.677C121.7 114.494 122.173 115.981 122.862 117.138C123.559 118.284 124.424 119.103 125.456 119.594C126.495 120.075 127.665 120.224 128.966 120.041C129.697 119.938 130.347 119.752 130.918 119.481C131.497 119.208 131.989 118.862 132.393 118.442C132.805 118.012 133.122 117.517 133.343 116.959C133.572 116.391 133.698 115.769 133.722 115.094L140.409 114.195C140.463 115.423 140.279 116.666 139.856 117.925C139.443 119.182 138.796 120.367 137.917 121.481C137.037 122.586 135.906 123.526 134.525 124.302C133.153 125.076 131.527 125.595 129.648 125.859C127.171 126.207 124.876 125.976 122.764 125.164C120.659 124.343 118.893 122.965 117.468 121.03C116.042 119.096 115.118 116.627 114.696 113.625C114.273 110.614 114.489 107.981 115.344 105.726C116.199 103.471 117.53 101.662 119.337 100.3C121.145 98.9375 123.264 98.0854 125.696 97.7436C127.353 97.5107 128.918 97.527 130.391 97.7924C131.862 98.0489 133.194 98.5431 134.387 99.2748C135.579 99.9976 136.599 100.949 137.446 102.129C138.293 103.309 138.912 104.707 139.303 106.324ZM148.309 94.9471L152.155 122.315L145.54 123.244L141.694 95.8768L148.309 94.9471ZM162.227 120.899L155.118 121.898L160.506 93.233L169.312 91.9953L182.392 118.065L175.283 119.064L165.978 99.4954L165.765 99.5254L162.227 120.899ZM159.765 110.262L174.625 108.173L175.331 113.198L160.471 115.286L159.765 110.262ZM185.339 117.651L181.492 90.2835L188.107 89.3539L191.198 111.349L202.584 109.749L203.339 115.121L185.339 117.651Z" fill="#207918"/>
</svg>
